<svg width="196" height="48" viewBox="0 0 196 48" fill="none" xmlns="http://www.w3.org/2000/svg">
<g clip-path="url(#clip0_4_4)">
<path fill-rule="evenodd" clip-rule="evenodd" d="M4.75338 23.1102C4.77206 22.7029 4.80943 22.3141 4.80943 21.9252C4.82188 17.1977 4.82811 12.464 4.82811 7.72413C4.82811 7.35383 4.82811 6.98353 4.90284 6.63174C4.99626 6.24292 5.23915 5.90965 5.72492 5.89114C6.19202 5.85411 6.52832 6.03926 6.71516 6.42807C6.84594 6.68729 6.92067 6.98353 6.92067 7.26125C6.93936 11.3161 6.93936 15.3524 6.93936 19.3887C6.93936 20.9254 6.97673 22.4437 6.93936 23.9804C6.93936 24.5914 7.1262 25.0173 7.6867 25.3135C8.2659 25.6098 8.78904 25.9615 9.53638 26.4059C9.57375 25.8134 9.6298 25.4246 9.6298 25.0358C9.6298 17.963 9.63603 10.8964 9.64848 3.83595C9.64848 3.46565 9.64848 3.09535 9.70453 2.74356C9.79795 2.24365 10.1529 1.98444 10.6574 2.00296C11.1432 2.03999 11.5168 2.26217 11.6103 2.76208C11.6663 3.13238 11.6476 3.50268 11.6476 3.85447C11.6476 11.2852 11.6539 18.7221 11.6663 26.1652C11.6663 26.4985 11.6663 26.8132 11.6663 27.1465C11.6476 27.5909 11.7971 27.9241 12.1708 28.1648C13.3292 28.8869 14.4689 29.6275 15.5899 30.3682C15.9822 30.6274 16.2998 30.6088 16.6922 30.3496C17.7011 29.6646 18.71 28.998 19.7563 28.4055C20.3542 28.0538 20.541 27.6094 20.541 26.9614C20.5161 23.7274 20.5161 20.4872 20.541 17.2409C20.541 12.8343 20.541 8.42771 20.541 4.00259C20.541 3.57674 20.5597 3.13238 20.6718 2.72505C20.8026 2.28068 21.1389 1.96593 21.662 2.00296C22.1291 2.03999 22.5215 2.41029 22.5962 2.92871C22.6336 3.24347 22.6336 3.57674 22.6336 3.91001C22.6336 10.9087 22.6398 17.9075 22.6523 24.9062C22.6523 25.3135 22.671 25.7394 22.6896 26.2763C23.6799 25.9615 24.3712 25.4061 25.0811 24.9247C25.2493 24.8136 25.2867 24.4803 25.3054 24.2396C25.3427 23.7397 25.3427 23.2213 25.3427 22.7029C25.3427 17.7161 25.3489 12.7294 25.3614 7.74265C25.3614 7.40938 25.3427 7.07611 25.3988 6.76135C25.5109 6.15035 25.8845 5.85411 26.4637 5.89114C27.0242 5.90965 27.2671 6.15035 27.3419 6.79838C27.3792 7.09462 27.3605 7.37235 27.3792 7.66859C27.4041 12.4455 27.4353 17.2162 27.4727 21.9808C27.4727 22.3511 27.51 22.7029 27.5287 23.0732C29.1542 22.7769 30.1257 21.7031 30.1444 20.1663C30.1818 17.3705 30.1631 14.5562 30.1818 11.7604C30.1818 11.4272 30.1631 11.0939 30.2191 10.7791C30.2939 10.2977 30.5928 9.98298 31.0973 9.92743C31.5457 9.87189 31.9941 10.2422 32.1249 10.7421C32.1809 10.9828 32.1622 11.2605 32.1622 11.5012C32.1809 14.5747 32.1622 17.6297 32.1996 20.6847C32.2183 22.24 31.583 23.3509 30.2939 24.1471C29.5652 24.5729 28.8926 25.0913 28.1453 25.4801C27.5474 25.8134 27.3419 26.2578 27.3605 26.9058C27.3979 28.2945 27.3419 29.6646 27.3792 31.0532C27.4353 32.7196 26.7814 33.9416 25.324 34.7562C24.6701 35.1451 24.0349 35.6079 23.3809 35.9968C22.8578 36.293 22.6149 36.7003 22.6336 37.3298C22.671 38.8111 22.6149 40.3108 22.6523 41.8105C22.671 43.2547 22.0731 44.3286 20.8586 45.1062C19.5134 45.9764 18.1495 46.8466 16.8043 47.7539C16.3559 48.0501 16.0009 48.1057 15.5151 47.7724C14.0952 46.8281 12.6005 45.9394 11.1805 44.9766C10.1716 44.31 9.6298 43.3287 9.6298 42.1253C9.61111 40.5885 9.59243 39.0517 9.6298 37.5335C9.64848 36.7929 9.42428 36.293 8.75167 35.9412C8.06038 35.5894 7.42513 35.1265 6.78989 34.7192C5.48204 33.886 4.79074 32.7381 4.82811 31.1643C4.84679 29.8127 4.77206 28.4611 4.8468 27.1095C4.92153 26.2022 4.52917 25.7023 3.78183 25.2765C3.05317 24.8692 2.36187 24.3878 1.6519 23.9249C0.586931 23.2398 0.0264224 22.2215 0.00773877 20.9995C-0.0109448 17.7408 0.00773991 14.5007 0.0264235 11.2605C0.0264235 11.0198 0.0824735 10.7421 0.175892 10.5199C0.362728 10.1311 0.699033 9.8904 1.14744 9.94595C1.61453 10.0015 1.9882 10.2607 2.08162 10.7606C2.13767 11.0383 2.11899 11.3346 2.11899 11.6308C2.11899 14.4636 2.11899 17.315 2.13767 20.1478C2.13767 21.6475 3.09054 22.7584 4.75338 23.1102ZM11.9466 30.6088C11.8469 30.6582 11.7535 30.7014 11.6663 30.7385C11.6663 31.9975 11.7037 33.275 11.6663 34.5341C11.6476 35.1265 11.8718 35.4783 12.3576 35.7746C13.4226 36.4226 14.4689 37.0891 15.5151 37.7742C15.9822 38.089 16.3559 38.0704 16.8043 37.7742C17.8381 37.0706 18.8844 36.3917 19.9432 35.7375C20.3729 35.4783 20.5223 35.1265 20.5223 34.6451C20.5037 33.4602 20.5223 32.2567 20.5037 31.0532C20.5037 30.9236 20.4102 30.8125 20.3168 30.6274C19.9805 30.831 19.6816 30.9791 19.42 31.1458C18.5792 31.6642 17.7198 32.1641 16.9351 32.7566C16.3559 33.1825 15.8888 33.1639 15.347 32.7566C14.9359 32.4604 14.5062 32.1826 14.0578 31.9049C13.3665 31.4791 12.6565 31.0532 11.9466 30.6088ZM20.4663 37.9964C19.9805 38.2556 19.6629 38.4222 19.364 38.6074C18.5606 39.1258 17.7572 39.6257 16.9911 40.1812C16.412 40.607 15.9449 40.6811 15.3283 40.2182C14.4502 39.5517 13.4973 38.9962 12.5631 38.4037C12.3576 38.2741 12.1334 38.1815 11.9092 38.0704C11.8158 38.2186 11.7037 38.3111 11.7037 38.3852C11.7037 39.5517 11.6663 40.7181 11.7224 41.8846C11.7597 42.5141 12.1147 43.051 12.6752 43.4028C13.6281 44.0323 14.581 44.6433 15.5338 45.2728C15.9449 45.5691 16.3372 45.532 16.7483 45.2543C17.6077 44.6989 18.4858 44.1619 19.3453 43.588C20.1487 43.051 20.5971 42.2919 20.5223 41.2921C20.485 40.7737 20.5223 40.2738 20.5223 39.7553C20.5037 39.2184 20.485 38.7 20.4663 37.9964ZM7.14488 27.4798C7.04523 27.5415 6.94559 27.5971 6.84594 27.6464C6.84594 28.7388 6.80857 29.8127 6.86462 30.9051C6.93936 32.2567 8.02301 33.3861 9.59243 33.7194C9.59243 32.2382 9.61112 30.794 9.59243 29.3498C9.57375 29.1832 9.4056 28.9425 9.23744 28.8314C8.54615 28.3685 7.83617 27.9242 7.14488 27.4798ZM22.671 33.9601C23.2502 33.6083 23.5865 33.4046 23.9228 33.2195C24.9504 32.627 25.3988 31.7753 25.3427 30.6088C25.324 29.8682 25.3614 29.1462 25.3427 28.4241C25.3427 28.1463 25.268 27.8871 25.1932 27.4613C24.2964 27.9242 23.5865 28.387 22.8952 28.9055C22.7644 29.0165 22.671 29.2202 22.671 29.3868C22.6523 30.831 22.671 32.2567 22.671 33.9601Z" fill="url(#paint0_linear_4_4)"/>
<path d="M43.2748 16.2225C43.0916 15.9414 43 15.7096 43 15.5269C43 15.5129 43 15.4567 43 15.3583C43 15.26 43.0705 15.1616 43.2114 15.0632C43.2678 15.0211 43.3382 15 43.4228 15C43.4932 15 43.5989 15.0281 43.7398 15.0843C43.8667 15.1546 44.0287 15.3232 44.226 15.5902L50.1236 25.7073V32.0094C50.1095 32.3326 50.0531 32.5785 49.9545 32.7471C49.8276 32.9157 49.6867 33 49.5317 33C49.3767 33 49.2428 32.9157 49.1301 32.7471C49.0173 32.5785 48.961 32.3326 48.961 32.0094V25.9602L43.2748 16.2225ZM50.4195 25.5808C50.2363 25.8759 50.0531 26.0585 49.8699 26.1288C49.7713 26.171 49.6867 26.192 49.6163 26.192C49.5317 26.192 49.4542 26.171 49.3837 26.1288C49.2569 26.0445 49.1865 25.904 49.1724 25.7073V25.6862C49.1724 25.5035 49.264 25.2787 49.4472 25.0117L54.774 15.6534C54.9572 15.3443 55.1404 15.1546 55.3236 15.0843C55.4222 15.0562 55.5068 15.0422 55.5772 15.0422C55.6618 15.0422 55.7322 15.0562 55.7886 15.0843C55.9295 15.1827 56 15.3302 56 15.5269V15.548C56 15.7307 55.9155 15.9555 55.7463 16.2225L50.4195 25.5808Z" fill="white" stroke="white" stroke-width="2"/>
<path fill-rule="evenodd" clip-rule="evenodd" d="M70.9879 33C68.2148 33 65.8529 32.1226 63.9021 30.3679C61.9674 28.5991 61 26.4764 61 24C61 21.5236 61.9754 19.408 63.9262 17.6533C65.8609 15.8844 68.2148 15 70.9879 15C73.7449 15 76.0988 15.8844 78.0496 17.6533C80.0165 19.408 81 21.5236 81 24C81 26.4764 80.0165 28.5991 78.0496 30.3679C76.0826 32.1226 73.7287 33 70.9879 33ZM70.9879 31.9599C73.374 31.9599 75.4135 31.1745 77.1064 29.6038C78.7832 28.033 79.6215 26.1509 79.6215 23.9575C79.6215 21.7641 78.7832 19.8821 77.1064 18.3113C75.4135 16.7547 73.374 15.9764 70.9879 15.9764C68.6018 15.9764 66.5623 16.7547 64.8694 18.3113C63.1927 19.8821 62.3543 21.7641 62.3543 23.9575C62.3543 26.1509 63.1927 28.033 64.8694 29.6038C66.5623 31.1745 68.6018 31.9599 70.9879 31.9599Z" fill="white" stroke="white" stroke-width="2"/>
<path d="M101.569 16.2538C101.856 16.5514 102 16.8064 102 17.0189C102 17.1322 101.963 17.2314 101.888 17.3164C101.788 17.4439 101.675 17.5077 101.55 17.5077C101.413 17.5077 101.263 17.4297 101.1 17.2739C100.438 16.778 99.8937 16.4663 99.4688 16.3388C98.9062 16.1688 98.325 16.0838 97.725 16.0838C95.9125 16.0838 94.3688 16.856 93.0938 18.4002C91.8187 19.9445 91.1813 21.8005 91.1813 23.9681C91.1813 26.1358 91.8187 27.9917 93.0938 29.536C94.3688 31.0803 95.9125 31.8524 97.725 31.8524C98.45 31.8524 99.1375 31.732 99.7875 31.4911C100.125 31.3211 100.544 31.0307 101.044 30.6198C101.219 30.4357 101.375 30.3436 101.513 30.3436C101.638 30.3436 101.756 30.4073 101.869 30.5348C101.944 30.6198 101.981 30.719 101.981 30.8324C101.981 31.0449 101.844 31.2999 101.569 31.5974C100.706 32.4191 99.4125 32.8867 97.6875 33C95.55 33 93.7375 32.1216 92.25 30.3648C90.75 28.608 90 26.4829 90 23.9894C90 21.51 90.75 19.392 92.25 17.6352C93.7375 15.8784 95.55 15 97.6875 15C98.325 15 98.9625 15.085 99.6 15.255C100.238 15.4392 100.894 15.7721 101.569 16.2538Z" fill="white" stroke="white" stroke-width="2"/>
<path d="M114.406 16.1237H109.095C108.722 16.1237 108.443 16.0671 108.256 15.9541C108.085 15.841 108 15.7067 108 15.5512C108 15.4099 108.085 15.2827 108.256 15.1696C108.443 15.0565 108.722 15 109.095 15H114.569C115.035 15 115.33 15.0636 115.454 15.1908C115.594 15.3039 115.664 15.5724 115.664 15.9965V32.0035C115.664 32.3286 115.602 32.576 115.478 32.7456C115.353 32.9152 115.214 33 115.058 33C114.872 33 114.717 32.9152 114.592 32.7456C114.468 32.576 114.406 32.3286 114.406 32.0035V16.1237ZM115.151 16.1237C114.779 16.1237 114.499 16.0671 114.313 15.9541C114.126 15.841 114.033 15.7138 114.033 15.5724C114.033 15.417 114.126 15.2827 114.313 15.1696C114.499 15.0565 114.779 15 115.151 15H120.905C121.262 15 121.534 15.0565 121.72 15.1696C121.907 15.2827 122 15.417 122 15.5724C122 15.7138 121.907 15.841 121.72 15.9541C121.534 16.0671 121.262 16.1237 120.905 16.1237H115.151Z" fill="white" stroke="white" stroke-width="2"/>
<path fill-rule="evenodd" clip-rule="evenodd" d="M135.51 33C133.153 33 131.146 32.1226 129.487 30.3679C127.829 28.5991 127 26.4764 127 24C127 21.5236 127.829 19.408 129.487 17.6533C131.146 15.8844 133.153 15 135.51 15C137.84 15 139.841 15.8844 141.513 17.6533C143.171 19.408 144 21.5236 144 24C144 26.4764 143.171 28.5991 141.513 30.3679C139.841 32.1226 137.84 33 135.51 33ZM135.51 31.9599C137.538 31.9599 139.272 31.1745 140.711 29.6038C142.136 28.033 142.849 26.1509 142.849 23.9575C142.849 21.7641 142.136 19.8821 140.711 18.3113C139.272 16.7547 137.538 15.9764 135.51 15.9764C133.482 15.9764 131.748 16.7547 130.31 18.3113C128.884 19.8821 128.172 21.7641 128.172 23.9575C128.172 26.1509 128.884 28.033 130.31 29.6038C131.748 31.1745 133.482 31.9599 135.51 31.9599Z" fill="white" stroke="white" stroke-width="2"/>
<path d="M154.211 16.1224V20.7176C154.211 21.0424 154.152 21.2894 154.032 21.4588C153.912 21.6282 153.763 21.7129 153.583 21.7129C153.434 21.7129 153.299 21.6282 153.179 21.4588C153.06 21.2894 153 21.0424 153 20.7176V15.9953C153 15.5718 153.067 15.3035 153.202 15.1906C153.322 15.0635 153.613 15 154.077 15H170.946C171.305 15 171.574 15.0565 171.753 15.1694C171.918 15.2682 172 15.3953 172 15.5506C172 15.72 171.918 15.8541 171.753 15.9529C171.574 16.0659 171.305 16.1224 170.946 16.1224H154.211ZM154.301 24.8894V32.0259C154.301 32.3506 154.241 32.5976 154.122 32.7671C154.002 32.9224 153.852 33 153.673 33C153.523 33 153.389 32.9224 153.269 32.7671C153.15 32.5976 153.09 32.3506 153.09 32.0259V24.7412C153.09 24.3176 153.165 24.0494 153.314 23.9365C153.434 23.8094 153.718 23.7459 154.166 23.7459H161.816C162.175 23.7459 162.436 23.8024 162.601 23.9153C162.78 24.0282 162.87 24.1553 162.87 24.2965C162.87 24.4659 162.78 24.6071 162.601 24.72C162.436 24.8329 162.175 24.8894 161.816 24.8894H154.301Z" fill="white" stroke="white" stroke-width="2"/>
<path d="M177.274 16.2225C177.091 15.9414 177 15.7096 177 15.5269C177 15.5129 177 15.4567 177 15.3583C177 15.26 177.076 15.1616 177.228 15.0632C177.289 15.0211 177.365 15 177.456 15C177.532 15 177.638 15.0281 177.775 15.0843C177.927 15.1546 178.11 15.3232 178.322 15.5902L184.661 25.7073V32.0094C184.661 32.3326 184.6 32.5785 184.479 32.7471C184.357 32.9157 184.213 33 184.046 33C183.878 33 183.734 32.9157 183.612 32.7471C183.491 32.5785 183.43 32.3326 183.43 32.0094V25.9602L177.274 16.2225ZM184.98 25.3911C184.768 25.6862 184.57 25.8689 184.388 25.9391C184.281 25.9813 184.19 26.0023 184.114 26.0023C184.023 26.0023 183.939 25.9813 183.863 25.9391C183.711 25.8407 183.635 25.7002 183.635 25.5176V25.4965C183.635 25.3138 183.734 25.089 183.932 24.822L189.655 15.6534C189.868 15.3443 190.073 15.1546 190.27 15.0843C190.377 15.0562 190.468 15.0422 190.544 15.0422C190.635 15.0422 190.711 15.0562 190.772 15.0843C190.924 15.1827 191 15.3302 191 15.5269V15.548C191 15.7307 190.909 15.9555 190.726 16.2225L184.98 25.3911Z" fill="white" stroke="white" stroke-width="2"/>
</g>
<defs>
<linearGradient id="paint0_linear_4_4" x1="6401.36" y1="11580.2" x2="6401.36" y2="28144.8" gradientUnits="userSpaceOnUse">
<stop stop-color="#37E09F"/>
<stop offset="1" stop-color="#47BAB3"/>
</linearGradient>
<clipPath id="clip0_4_4">
<rect width="196" height="48" fill="white"/>
</clipPath>
</defs>
</svg>
