<svg
          width="24"
          height="24"
          viewBox="0 0 24 24"
          xmlns="http://www.w3.org/2000/svg"
        >
          <path d="M11.6071 1.00005C11.3866 0.996539 11.166 1.00862 10.9471 1.0362C7.82 1.31905 4.894 3.00362 3.04129 5.59334C2.01592 7.01631 1.34958 8.66598 1.099 10.4019C1.011 11.0038 1 11.1829 1 12.0001C1 12.8203 1.011 12.9979 1.099 13.6029C1.40097 15.6379 2.26537 17.5481 3.59475 19.1182C4.92413 20.6883 6.66564 21.8559 8.623 22.4893C9.338 22.7188 10.0907 22.8759 10.9456 22.9702C11.2803 23.0079 12.7213 23.0079 13.0544 22.9702C14.5316 22.8083 15.7824 22.4422 17.0176 21.8121C17.2061 21.7146 17.2423 21.6895 17.2171 21.6675C16.6141 20.8715 16.017 20.0711 15.4257 19.2663L13.6657 16.8903L11.4626 13.6281C10.7299 12.537 9.99023 11.4506 9.24371 10.3689C9.23429 10.3658 9.22643 11.8146 9.22171 13.5856C9.21543 16.6845 9.21229 16.8071 9.17457 16.8825C9.13695 16.9678 9.07007 17.0369 8.986 17.0773C8.91686 17.1119 8.85557 17.1182 8.53029 17.1182H8.15943L8.06043 17.0553C7.99891 17.017 7.94895 16.9627 7.91586 16.8982L7.87029 16.8023L7.875 12.4903L7.88129 8.17834L7.94886 8.09348C7.99376 8.04109 8.04747 7.99696 8.10757 7.96305C8.19557 7.91905 8.23014 7.91591 8.60257 7.91591C9.041 7.91591 9.11486 7.93163 9.228 8.05734C9.25943 8.09191 10.4537 9.88962 11.8821 12.0551C13.3279 14.2456 14.7736 16.4378 16.2224 18.6283L17.9636 21.2652L18.0516 21.2071C18.8898 20.6502 19.6497 19.9838 20.3113 19.2255C21.6974 17.6394 22.5965 15.6872 22.901 13.6029C22.989 12.9995 23 12.8219 23 12.0001C23 11.1829 22.989 11.0038 22.901 10.3988C22.599 8.36375 21.7346 6.45354 20.4053 4.88344C19.0759 3.31333 17.3344 2.14577 15.377 1.51234C14.6315 1.2754 13.8638 1.11481 13.0859 1.03305C12.9319 1.01891 12.0927 1.00005 11.6071 1.00005ZM15.3377 7.61577C15.6551 7.61577 15.7117 7.62048 15.7824 7.6582C15.8339 7.68407 15.8797 7.7199 15.9171 7.7636C15.9546 7.80729 15.9831 7.858 16.0009 7.91277C16.0166 7.96777 16.0213 9.16362 16.0166 11.8571L16.0103 15.7228L15.3299 14.6793L14.6447 13.6343V10.8215C14.6447 9.00491 14.6541 7.98348 14.6667 7.93477C14.682 7.87733 14.7089 7.82361 14.7456 7.77688C14.7824 7.73014 14.8282 7.69137 14.8804 7.66291C14.9684 7.61891 14.9999 7.61577 15.3377 7.61577Z"></path>
        </svg>