<svg
          width="24"
          height="24"
          viewBox="0 0 24 24"
          fill="#764ABC"
          xmlns="http://www.w3.org/2000/svg"
        >
          <path
            d="M16.6295 16.4749C17.5151 16.3833 18.187 15.6198 18.1565 14.7035C18.126 13.7872 17.3624 13.0542 16.4461 13.0542H16.3852C15.4382 13.0848 14.7054 13.8788 14.7359 14.8257C14.7664 15.2838 14.9497 15.6808 15.2245 15.9557C14.1861 18.002 12.598 19.4986 10.2158 20.7508C8.59716 21.606 6.91744 21.9114 5.23772 21.6977C3.86335 21.5144 2.79441 20.9036 2.12241 19.8956C1.14516 18.3991 1.05356 16.7803 1.87818 15.1617C2.4585 14.001 3.37462 13.1459 3.95494 12.7182C3.83278 12.3212 3.6495 11.6493 3.55791 11.1607C-0.870565 14.3675 -0.412405 18.7045 0.931403 20.7508C1.93922 22.278 3.9855 23.2248 6.24553 23.2248C6.85631 23.2248 7.46709 23.1636 8.07797 23.011C11.9872 22.2474 14.9498 19.9261 16.6295 16.4749ZM22.0047 12.6877C19.6836 9.96946 16.263 8.47294 12.3538 8.47294H11.8651C11.5902 7.92319 11.01 7.55662 10.3686 7.55662H10.3074C9.36075 7.58719 8.62781 8.38125 8.65828 9.32813C8.68885 10.2444 9.45234 10.9774 10.3686 10.9774H10.4296C11.1015 10.9468 11.6819 10.5192 11.9261 9.93891H12.4759C14.7971 9.93891 16.9959 10.6108 18.9812 11.9242C20.5082 12.9321 21.6077 14.2454 22.2184 15.8336C22.7377 17.1163 22.7071 18.3685 22.1574 19.4376C21.3022 21.0563 19.8668 21.942 17.9733 21.942C16.7516 21.942 15.5911 21.5754 14.9802 21.3006C14.6443 21.606 14.0335 22.0946 13.6059 22.4002C14.9192 23.0109 16.263 23.3469 17.5457 23.3469C20.4777 23.3469 22.646 21.7282 23.4707 20.1095C24.3564 18.338 24.2952 15.2838 22.0047 12.6877ZM6.48984 16.994C6.52041 17.9103 7.28391 18.6433 8.20013 18.6433H8.26125C9.20803 18.6129 9.94099 17.8187 9.91037 16.8719C9.87994 15.9556 9.11634 15.2226 8.20013 15.2226H8.13909C8.07797 15.2226 7.98628 15.2226 7.92535 15.2532C6.67312 13.1763 6.15394 10.9163 6.33722 8.47284C6.45928 6.64031 7.07015 5.05209 8.13909 3.73875C9.02475 2.60868 10.735 2.05894 11.8956 2.02847C15.133 1.96734 16.5072 5.99887 16.5989 7.61766C16.9959 7.70925 17.6678 7.92309 18.126 8.07581C17.7594 3.12806 14.7054 0.5625 11.7735 0.5625C9.02475 0.5625 6.48984 2.54774 5.48194 5.47977C4.07709 9.38915 4.99332 13.1459 6.7036 16.1084C6.55096 16.3221 6.45928 16.658 6.48984 16.994Z"
            fill="currentFill"
          ></path>
        </svg>