<svg
          width="24"
          height="24"
          viewBox="0 0 24 24"
          fill="#61DBFB"
          xmlns="http://www.w3.org/2000/svg"
        >
          <path d="M19.7333 8.13156C19.4778 8.03998 19.2189 7.95641 18.96 7.87971C19.0044 7.69655 19.0433 7.51454 19.0789 7.3371C19.6633 4.41224 19.2811 2.05519 17.9756 1.28018C16.7233 0.536095 14.6756 1.31109 12.6089 3.1656C12.4044 3.34876 12.2044 3.53765 12.01 3.73111C11.8797 3.6027 11.747 3.47676 11.6122 3.35334C9.44556 1.36948 7.27333 0.533806 5.96778 1.31224C4.71778 2.05862 4.34667 4.27373 4.87333 7.04519C4.92556 7.31993 4.98444 7.59238 5.05111 7.86483C4.75222 7.95183 4.45556 8.04799 4.16222 8.15217C1.62222 9.06454 0 10.4955 0 11.9791C0 13.5108 1.74222 15.0482 4.38889 15.98C4.60333 16.0556 4.82 16.1254 5.03778 16.1895C4.96667 16.4814 4.90445 16.7756 4.84889 17.0721C4.34889 19.7966 4.73889 21.9591 5.98667 22.6997C7.27556 23.4656 9.43778 22.6791 11.5433 20.7823C11.7144 20.6277 11.8811 20.4698 12.0444 20.3072C12.2556 20.5167 12.4711 20.7193 12.6933 20.9162C14.7333 22.7249 16.7489 23.4553 17.9933 22.7123C19.2822 21.9442 19.7 19.6215 19.1567 16.7939C19.1137 16.5726 19.0655 16.3524 19.0122 16.1334C19.1644 16.0876 19.3133 16.0395 19.4589 15.9892C22.21 15.0505 24 13.5314 24 11.9791C24 10.4909 22.3256 9.04966 19.7333 8.13041V8.13156ZM19.1356 14.9864C19.0044 15.0322 18.8689 15.0745 18.7322 15.1169C18.3966 14.0452 17.9904 12.9984 17.5167 11.9837C17.9944 10.9213 18.39 9.88189 18.6844 8.8974C18.93 8.97067 19.1689 9.04737 19.3978 9.12979C21.62 9.91738 22.9733 11.0816 22.9733 11.9791C22.9733 12.935 21.5111 14.1759 19.1356 14.9864ZM18.15 16.9989C18.39 18.2489 18.4244 19.3799 18.2644 20.2626C18.1222 21.057 17.8344 21.5859 17.4789 21.7977C16.7233 22.2487 15.1056 21.6626 13.3611 20.1149C13.1556 19.9317 12.9544 19.744 12.7578 19.5494C13.485 18.7194 14.1569 17.8398 14.7689 16.9164C15.8628 16.8217 16.949 16.6496 18.02 16.4013C18.0689 16.6051 18.1122 16.8042 18.15 16.9989ZM8.18111 21.7198C7.44222 21.9889 6.85333 21.9957 6.49778 21.7851C5.74222 21.3352 5.42667 19.5986 5.85556 17.269C5.90667 16.9943 5.96444 16.7195 6.03111 16.4482C7.01333 16.6726 8.10222 16.834 9.26445 16.9302C9.895 17.8499 10.5835 18.726 11.3256 19.5528C11.1767 19.7016 11.0233 19.8459 10.8678 19.9878C9.93667 20.8258 9.00333 21.4211 8.18111 21.7198ZM4.71889 14.9806C3.54889 14.5685 2.58222 14.0328 1.92 13.449C1.32444 12.9235 1.02444 12.4015 1.02444 11.9791C1.02444 11.0782 2.32778 9.92997 4.5 9.14925C4.76444 9.05538 5.04 8.96609 5.32667 8.88138C5.62667 9.88876 6.02111 10.9408 6.49667 12.0043C6.03423 13.0321 5.63818 14.0902 5.31111 15.1718C5.11111 15.1134 4.91556 15.0493 4.71889 14.9806ZM5.88 6.84142C5.42889 4.46719 5.72889 2.67564 6.48222 2.2269C7.28556 1.74725 9.06 2.43067 10.9322 4.14208C11.0544 4.25427 11.1744 4.36874 11.2922 4.48551C10.5557 5.30654 9.87267 6.17693 9.24778 7.09098C8.17 7.19057 7.10111 7.36228 6.04444 7.60383C5.98333 7.35198 5.92889 7.09784 5.88 6.84256V6.84142ZM16.2322 9.47665C15.9989 9.05881 15.7544 8.6467 15.5022 8.24031C16.2689 8.33876 17.0022 8.47155 17.6911 8.63411C17.4844 9.31638 17.2267 10.0307 16.9244 10.7634C16.7022 10.3283 16.4711 9.90021 16.2322 9.47665ZM12.01 5.2399C12.4833 5.76649 12.9567 6.35719 13.4233 6.99596C12.4789 6.95017 11.5311 6.95017 10.5867 6.99596C11.0533 6.36176 11.5311 5.77336 12.0111 5.2399H12.01ZM7.76333 9.48237C7.52778 9.9025 7.30111 10.3295 7.08556 10.7611C6.79776 10.0607 6.54338 9.34631 6.32333 8.62037C7.00778 8.46354 7.73778 8.33418 8.49889 8.23688C8.24333 8.64556 7.99889 9.0611 7.76333 9.48237ZM8.52 15.7946C7.77737 15.7115 7.03936 15.5893 6.30889 15.4282C6.52 14.7231 6.78111 13.9904 7.08667 13.2452C7.52556 14.1175 8.00333 14.9692 8.52 15.7946ZM12.04 18.7915C11.5306 18.2228 11.0485 17.6288 10.5956 17.0114C11.5467 17.0481 12.4989 17.0458 13.4489 17.0057C13.0097 17.6258 12.5394 18.2219 12.04 18.7915ZM16.9333 13.2074C17.2556 13.9607 17.5244 14.6899 17.74 15.3825C17.0433 15.5462 16.2922 15.6778 15.5011 15.7751C16.0122 14.9394 16.4889 14.0832 16.9333 13.2074ZM15.35 13.9893C14.9862 14.64 14.6019 15.2783 14.1978 15.9033C13.4667 15.9571 12.7333 15.9835 12 15.9835C11.2533 15.9835 10.5267 15.9594 9.82778 15.9125C9.00034 14.6687 8.266 13.3618 7.63111 12.0031C8.26217 10.6471 8.99242 9.34253 9.81556 8.10065C11.2711 7.98618 12.7344 7.98618 14.19 8.10065C15.0027 9.34536 15.7347 10.6441 16.3811 11.9882C16.0606 12.6677 15.7166 13.3351 15.35 13.9893ZM17.4644 2.1937C18.2678 2.67107 18.5811 4.59769 18.0756 7.12188C18.0433 7.28329 18.0089 7.447 17.9678 7.61413C16.9722 7.37717 15.89 7.20202 14.7589 7.09212C14.1404 6.17607 13.4625 5.30407 12.73 4.48207C12.91 4.30463 13.0933 4.13063 13.2822 3.96121C15.0544 2.37228 16.71 1.74496 17.4644 2.1937ZM12 9.76971C12.2856 9.76301 12.5697 9.81519 12.8355 9.92318C13.1013 10.0312 13.3435 10.1928 13.5478 10.3986C13.7521 10.6043 13.9145 10.8501 14.0253 11.1214C14.1362 11.3927 14.1933 11.6841 14.1933 11.9785C14.1933 12.2729 14.1362 12.5643 14.0253 12.8356C13.9145 13.1069 13.7521 13.3527 13.5478 13.5585C13.3435 13.7642 13.1013 13.9259 12.8355 14.0339C12.5697 14.1418 12.2856 14.194 12 14.1873C11.4399 14.1742 10.9069 13.9357 10.5153 13.5229C10.1236 13.1101 9.90437 12.5558 9.90437 11.9785C9.90437 11.4013 10.1236 10.8469 10.5153 10.4341C10.9069 10.0213 11.4399 9.78285 12 9.76971Z"></path>
        </svg>