 <svg
          width="24"
          height="24"
          viewBox="0 0 24 24"
          fill="#F7DF1E"
          xmlns="http://www.w3.org/2000/svg"
        >
          <path d="M2 22V2H22V22H2Z" fill="currentFill"></path>
          <path
            d="M15.0714 16.9723C15.4558 17.5967 15.8736 18.1951 16.7586 18.1951C17.5019 18.1951 17.8919 17.8256 17.8919 17.3145C17.8919 16.7028 17.4886 16.4856 16.6708 16.1295L16.2225 15.9384C14.9286 15.3895 14.068 14.7017 14.068 13.249C14.068 11.9101 15.093 10.8912 16.6947 10.8912C17.8352 10.8912 18.6547 11.2862 19.2458 12.3206L17.8491 13.2134C17.5419 12.6645 17.2097 12.4484 16.6947 12.4484C16.1691 12.4484 15.8364 12.7801 15.8364 13.2134C15.8364 13.749 16.1697 13.9656 16.9391 14.2973L17.3875 14.4884C18.9125 15.1378 19.7725 15.8012 19.7725 17.2923C19.7725 18.899 18.5036 19.7795 16.8002 19.7795C15.1341 19.7795 14.188 18.9434 13.6614 17.9084L15.0714 16.9723ZM8.63469 17.0178C8.9158 17.5212 9.34302 17.9084 9.95747 17.9084C10.5452 17.9084 10.8836 17.6762 10.8836 16.7734V10.8906H12.7352V17.0578C12.7352 18.9284 11.6502 19.7795 10.0658 19.7795C8.63413 19.7795 7.6008 18.8095 7.17969 17.9084L8.63469 17.0178Z"
            fill="black"
          ></path>
        </svg>